<svg version="1.1" viewBox="0.0 0.0 318.750656167979 518.7506561679791" fill="none" stroke="none" stroke-linecap="square" stroke-miterlimit="10" xmlns:xlink="http://www.w3.org/1999/xlink" xmlns="http://www.w3.org/2000/svg"><clipPath id="p.0"><path d="m0 0l318.75067 0l0 518.7507l-318.75067 0l0 -518.7507z" clip-rule="nonzero"/></clipPath><g clip-path="url(#p.0)"><path fill="#000000" fill-opacity="0.0" d="m0 0l318.75067 0l0 518.7507l-318.75067 0z" fill-rule="evenodd"/><path fill="#e06666" d="m112.183876 20.563337l0 0c0 -9.532538 7.727646 -17.260187 17.260185 -17.260187l172.59775 0c4.577667 0 8.967865 1.8184786 12.204773 5.055392c3.2369385 3.2369127 5.0553894 7.6271095 5.0553894 12.204796l0 69.03868c0 9.532532 -7.7276306 17.260185 -17.260162 17.260185l-172.59775 0c-9.532539 0 -17.260185 -7.7276535 -17.260185 -17.260185z" fill-rule="evenodd"/><path fill="#e06666" d="m112.18387 226.02791l0 0c0 -9.532547 7.727646 -17.260193 17.260178 -17.260193l172.59773 0c4.5776978 0 8.9678955 1.8184814 12.204803 5.0553894c3.236908 3.2369232 5.0553894 7.6271057 5.0553894 12.204803l0 69.03868c0 9.532532 -7.7276306 17.260193 -17.260193 17.260193l-172.59773 0c-9.532532 0 -17.260178 -7.727661 -17.260178 -17.260193z" fill-rule="evenodd"/><path fill="#e06666" d="m46.442413 3.3032057l52.62992 0l0 103.55905l-52.62992 0z" fill-rule="evenodd"/><path fill="#e06666" d="m46.429546 106.87146l52.629917 0l0 103.55905l-52.629917 0z" fill-rule="evenodd"/><path fill="#e06666" d="m46.429546 208.76677l52.629917 0l0 103.55907l-52.629917 0z" fill-rule="evenodd"/><path fill="#e06666" d="m46.429546 439.2173l52.629917 0l0 78.6142l-52.629917 0z" fill-rule="evenodd"/><path fill="#e06666" d="m0.02887454 5.4823256l33.354332 0l0 32.25197l-33.354332 0z" fill-rule="evenodd"/><path fill="#e06666" d="m0.02887454 50.832043l33.354332 0l0 32.251972l-33.354332 0z" fill-rule="evenodd"/><path fill="#e06666" d="m0.02887454 96.18176l33.354332 0l0 32.25197l-33.354332 0z" fill-rule="evenodd"/><path fill="#e06666" d="m0.02887454 141.53148l33.354332 0l0 32.25197l-33.354332 0z" fill-rule="evenodd"/><path fill="#e06666" d="m0.02887454 186.8812l33.354332 0l0 32.25197l-33.354332 0z" fill-rule="evenodd"/><path fill="#e06666" d="m0.02887454 232.23091l33.354332 0l0 32.25197l-33.354332 0z" fill-rule="evenodd"/><path fill="#e06666" d="m0.02887454 277.58063l33.354332 0l0 32.251984l-33.354332 0z" fill-rule="evenodd"/><path fill="#e06666" d="m-0.0011527559 439.2158l33.35433 0l0 32.251984l-33.35433 0z" fill-rule="evenodd"/><path fill="#e06666" d="m-0.0011527559 484.56552l33.35433 0l0 32.251984l-33.35433 0z" fill-rule="evenodd"/><path fill="#e06666" d="m112.13648 452.2798l0 0c0 -7.236389 5.866249 -13.102631 13.102623 -13.102631l180.91287 0c3.4750366 0 6.8077393 1.3804626 9.264954 3.837677c2.4572144 2.4572144 3.837677 5.789917 3.837677 9.264954l0 52.408936c0 7.2363586 -5.866272 13.1026 -13.102631 13.1026l-180.91287 0l0 0c-7.236374 0 -13.102623 -5.8662415 -13.102623 -13.1026z" fill-rule="evenodd"/></g></svg>